<?xml version="1.0" encoding="UTF-8"?>
<svg id="Layer_2" data-name="Layer 2" xmlns="http://www.w3.org/2000/svg" viewBox="0 0 500 911.29">
  <defs>
    <style>
      .cls-1 {
        fill: #474967;
      }
    </style>
  </defs>
  <g id="Layer_1-2" data-name="Layer 1">
    <path id="Back" class="cls-1" d="M499.76,455.61c-.89-4.3-2.83-11.11-5.82-20.42-1.78-5.55-2.66-11.47-2.66-17.74.01-5.08-1.36-9.87-4.14-14.36-.23-.37-.42-.78-.55-1.2-5.71-17.66-11.09-33.47-16.11-47.43-3.19-8.84-6.47-16.63-9.83-23.34-7.93-15.81-19.23-29.8-32.35-42.06-.3-.28-.55-.6-.76-.95-2-3.41-3.41-8.18-4.27-10.71-1.96-5.84-4.77-10.49-7.76-16.48-.74-1.49-2.1-4.72-4.07-9.68-4.42-11.15-11.21-20.99-20.37-29.56-.39-.36-.66-.83-.76-1.36-1.33-6.74-2.57-11.72-3.71-14.96-7.6-21.45-22.27-36.07-43.97-43.89-4.69-1.69-9.47-2.49-14.34-2.41-.4,0-.78-.11-1.12-.31-6.06-3.72-9.51-5.75-10.34-6.1-10.64-4.42-18.51-7.78-23.6-10.1-2.81-1.28-6.22-4.06-10.25-8.35-.2-.22-.33-.49-.33-.8l-.75-29.69c-.01-.36.06-.74.2-1.07,1.24-2.98,1.94-6.01,2.12-9.09.04-.53.47-.96,1-.96,9.75-.31,10.25-15.19,9.75-22.89-.18-2.77-1.16-4.92-2.9-6.42-.34-.28-.48-.72-.39-1.16.98-4.35,1.6-7.12,1.9-8.33,3.55-14.45-2.66-28.23-11.21-39.53-.01-.02-.02-.04-.04-.06-.22-.35-.1-.81.25-1.02l.93-.52c.35-.2.48-.64.3-1-5.28-10.82-19.64-11.57-29.46-8.86-.06.02-.13.02-.19.02-.37-.01-.66-.33-.65-.69.01-.61-.07-1.06-.25-1.35-.24-.39-.65-.63-1.1-.67-5.46-.53-13.01,1-18.72,2.93-11.8,4-20.07,11.43-24.83,22.3-2.35,5.35-3.4,11.37-3.14,18.09.25,6.6,1.25,12.68,3.02,18.21.13.41.06.86-.19,1.22l-2.54,3.58c-.19.29-.33.61-.37.95-1.07,7.6-.29,14.43,2.35,20.47,1.31,2.99,3.72,4.52,7.24,4.6.46,0,.83.37.86.83.11,2.88.84,6,2.23,9.36.08.22.12.45.12.67l-.7,29.66c-.01.54-.22,1.06-.58,1.46-3.74,4.04-7.66,6.99-11.8,8.88-3.74,1.71-9.29,4.07-16.65,7.08-5.72,2.34-9.96,4.84-14.78,7.9-.76.48-1.65.75-2.55.75-11.34-.05-22.93,5.39-32.47,12.13-16.51,11.69-25.64,29.36-28.87,49.11-.08.51-.34.96-.7,1.31-9.23,8.59-16.06,18.51-20.51,29.76-1.87,4.71-3.22,7.92-4.05,9.59-2.83,5.7-5.71,10.58-7.65,16.27-.51,1.49-1.33,3.89-2.45,7.21-.73,2.19-2,4.16-3.69,5.74-15.81,14.83-27.99,31.57-36.36,52.02-7.6,18.58-14.46,39.95-20.29,58.03-1.28,3.94-4.14,7.43-4.78,12.1-.57,4.18-.81,8-.73,11.46.01.82-.06,1.65-.23,2.46-1.76,8.62-4.81,17.5-7.55,27-.92,3.19-1.01,6.31-.3,9.39,2.37,10.18,3.74,15.99,4.1,17.4.65,2.53,2.11,4.83,4.39,6.9,2.28,2.08,5.88,5.16,10.82,9.23.31.25.76.24,1.06-.02,1.52-1.33,2.61-3.19,2.84-5.25.12-1,.29-1.7.49-2.07.16-.29.36-.54.61-.77,2.13-1.95,2.93-4.37,2.36-7.25-.51-2.58-3.39-4.95-4.19-7.83-.17-.61-.16-1.27.02-1.87.51-1.71,1.3-6.4,2.39-14.06.18-1.31.99-2.47,2.4-3.49.06-.05.13-.07.22-.07.24-.01.45.17.45.4.2,6.95,3,19.78,13.53,13.1.64-.41,1.01-1.13.96-1.89-.29-5.33-1.1-10.84-2.42-16.57-.31-1.36-.22-3.89.28-7.59.64-4.8.34-8.45-1.23-11.9-.22-.48-1.28-2.16-3.19-5.02-.89-1.34-1.1-3.01-.55-4.52,1.7-4.69,3.92-8.96,6.66-12.81,7.07-9.9,14.16-17.53,22.72-26.46,14.19-14.81,25.47-37.39,33.29-49.17,7.04-10.62,14.18-20.07,21.44-28.4,6.13-7.05,10.46-12.41,13-16.11,6.3-9.15,12-17.75,17.11-25.78.06-.08.14-.14.25-.17.22-.05.42.08.47.3,2.46,10.57,5.75,20.77,9.86,30.6.73,1.75,2.54,5.18,5.43,10.33,7.8,13.9,8.7,32.81,8.31,48.5-.49,20.12-3.27,41.53-7.95,63.14-.47,2.12-.63,4.96-.49,8.53.11,2.9-.43,6.28-1.64,10.13-2.66,8.53-4.72,16.3-6.18,23.3-10.75,51.75-14.31,105.72-3.41,157.4,1.07,5.07,1.55,9.72.88,14.1-1.8,11.87-2.92,22.24-3.36,31.1-.34,6.76-1.6,13.45-3.19,18.45-4.87,15.29-7.68,25.05-8.41,29.28-2.19,12.57-3.19,22.01-3,28.34.18,6.35.64,13.22,1.37,20.6,1.7,17.18,3.59,36.51,5.65,57.98,1.17,12.15,1.77,21.18,1.77,27.12,0,2.78-1.04,9.62-3.12,20.51-.08.48-.28.94-.57,1.34-3.54,4.92-7.68,9.25-12.4,13.01-.52.42-1.14.69-1.8.78-3.53.51-4.13,2.99-7.43,3.48-2.83.42-5.49,2.41-7.98,5.96-3.95,5.65.11,9.75,5.51,11.05,7.28,1.75,13.35,3.36,18.21,4.86.54.17,1.05.47,1.45.88,6.72,6.76,14.95,9.96,24.68,9.6,8.16-.3,13.33-3.94,15.52-10.92.78-2.48.9-6.53.39-12.15-.63-6.83-.78-12.15.02-17.81.71-4.95,1.19-6.89.73-12.71-.47-6.04-.01-12.51,1.4-19.39,4.28-20.87,9.77-41.09,16.48-60.67,1.74-5.04,3.1-8.06,5.31-13.06,1.36-3.07,2.31-6.46,2.84-10.16.96-6.69,1.13-13.8.52-21.35-1.57-19.27-3.17-35.06-4.8-47.4-.63-4.68-.37-10.04,2.31-13.56,4.02-5.29,6.51-8.64,7.43-10.05,5.49-8.35,7.52-18.59,9.11-30.04,2.34-16.84,5.31-32.44,8.94-46.79,4.77-18.87,11.43-40.22,15.27-61.14,2.55-13.92,4.39-29.26,5.51-46.02h-.01s0-.01,0-.01c.02-.07.1-.12.17-.1.08.01.14.12.14.3.83,15.46,2.74,31.23,5.69,47.29,3.7,20.05,9.9,40.06,15.04,59.78,3.34,12.83,6.72,31.18,10.13,55.04.9,6.28,3.06,12.7,6.47,19.27,2.37,4.57,5.94,8.51,9.1,12.83.42.58.75,1.23.98,1.92,1.13,3.49,1.63,5.82,1.49,6.99-2.57,21.93-5.36,42.52-5.63,62.88-.07,5.4,1.11,10.42,1.89,15.64.06.42.18.82.36,1.2,3.19,6.99,5.54,12.69,7.02,17.09,7.27,21.44,12.81,42.21,16.63,62.32,1.29,6.78,1.71,11.87,1.27,15.25-.52,3.96-.64,6.75-.39,8.36,1.22,7.81,1.71,13.36,1.47,16.65-.7,9.68-2.23,16.05,1.47,23.11,3.45,6.57,11.45,8.12,18.77,7.21,8.55-1.06,15.03-4.12,19.41-9.19.39-.45.89-.78,1.46-.96,5.36-1.67,10.98-3.19,16.87-4.57,5.07-1.19,11.29-4.25,7.96-10.25-2.28-4.11-5.27-6.52-8.94-7.25-1.42-.28-2.43-.75-3.02-1.4-1.98-2.17-4.47-1.54-6.89-3.53-4.25-3.49-8.07-7.58-11.43-12.24-.24-.34-.41-.72-.49-1.13-2.1-9.78-3.74-18.95-3.01-29.4,1.61-23.38,4.21-46.71,7.63-80.51,1.77-17.53.64-34.39-3.42-50.57-.67-2.66-1.67-6.22-3-10.65-.02-.08-1.11-3.64-3.27-10.65-2.25-7.34-3.46-12.63-3.61-15.86-.52-10.35-1.75-22.36-3.66-36.04-.57-4.08-.61-7.21-.12-9.39,6.88-30.58,9.08-62.72,6.63-96.39-1.72-23.65-5.01-46.73-9.86-69.22-1.78-8.25-3.95-14.53-6.19-22.47-.87-3.08-1.08-6.66-.64-10.75.04-.4.02-.8-.05-1.18-.37-2.06-1.53-8.02-3.45-17.92-1.65-8.52-3.05-19.21-4.18-32.09-1.59-18.12-1.37-33.09.65-44.89,1.33-7.76,2.74-13.1,4.22-16,1.1-2.17,3.18-6.08,6.24-11.76,4.66-8.6,8.39-21.89,11.63-33.62.02-.11.1-.19.18-.25.2-.13.47-.07.6.13,4.96,7.77,10.58,16.25,16.84,25.44,2.54,3.75,6.72,8.92,12.53,15.51,5.99,6.81,12.49,15.25,19.5,25.34,6.13,8.82,14.43,24.32,22.46,35.83,4.61,6.64,7.53,10.62,8.72,11.93,8.77,9.62,19.28,20.03,27.36,31.65,2.75,3.93,7,10.76,6.84,15.42-.02.55-.2,1.1-.53,1.55-3.96,5.55-5.74,9.43-4.76,16.48.41,2.99.59,5.33.53,7.01v.05l-2.81,16.74c-.19,1.12.28,2.24,1.2,2.89,10.27,7.15,13.39-6.27,13.45-13.1,0-.06.01-.12.05-.18.11-.19.35-.27.54-.16,1.7.96,2.7,2.94,2.87,4.86.4,4.34,1.1,8.53,2.12,12.59.36,1.42.07,2.93-.8,4.11-2.43,3.34-5.76,8.37-1.87,12.12.73.7,1.17,1.16,1.31,1.37.23.36.36.77.4,1.19.18,2.69,1.18,4.82,3,6.41.34.29.84.29,1.19,0,6.1-5.11,9.52-8.04,10.27-8.77,2.58-2.52,4.07-4.55,4.48-6.11,1.06-4.02,2.43-9.75,4.12-17.16.78-3.46.95-6.28.51-8.46ZM350.12,167.56c18.35,9.35,30.16,23.94,35.45,43.79.22.81.77,2.94,1.66,6.4h0c.02.08.01.17-.02.24-.08.17-.3.24-.47.16-3.82-1.96-6.8-3.01-8.94-3.12-12.54-.67-23.93-2.48-34.13-8.93-1.05-.66-5.08-3.74-12.11-9.24-12.71-9.95-20.27-15.81-27.83-22.47-.02-.01-.04-.02-.05-.04-.36-.37-.36-.96,0-1.33,13.45-13.56,30.1-13.8,46.45-5.46ZM290.75,85.05c-.73,2.35-2.24,3.96-4.52,4.82-.08.04-.17.04-.25,0-.17-.07-.24-.28-.17-.45l2.4-4.76c.23-.46.37-.95.42-1.46l1.77-16.82c.02-.13.1-.25.2-.33.22-.16.51-.1.65.12h0c2.69,4.17.95,14.21-.51,18.87ZM214.28,89.71c-.06.18-.25.27-.43.2-2.28-.86-3.78-2.47-4.52-4.82-1.46-4.65-3.19-14.69-.51-18.87h.01c.07-.11.19-.19.33-.2.27-.04.49.16.53.41l1.77,16.81c.05.51.19,1,.42,1.46l2.4,4.76c.02.07.04.17,0,.25ZM213.63,79.61c-.76-8.3-1.39-13.8-1.88-16.47-.06-.35-.16-.67-.28-1-3.14-8.65-4.77-21.63-2.14-30.7,5.54-19.16,20.1-27.24,38.74-28.74.08,0,.17.05.2.12.05.11.01.23-.1.28l-5.31,2.24c-.36.14-.64.47-.73.86-.17.67.25,1.36.93,1.53.61.14,1.22.13,1.81-.05,6.86-2.04,12.87-3.21,18.05-3.51,5.99-.34,11.75.9,16.4,5.46.08.07.11.17.11.28-.02.18-.18.31-.36.29-.41-.02-1.35-.48-2.81-1.36-.65-.39-1.48-.24-1.96.34l-.02.04s-.04.02-.04.04c-.4.53-.29,1.28.24,1.67,2.49,1.87,4.08,3.21,4.78,4.02,7.47,8.65,12.64,19.63,12.66,31.07.01,2.28-.41,5.12-1.24,8.52-1.12,4.57-1.81,7.35-2.08,8.36-2.13,7.82-.61,18.69-4.99,24.95-4,5.75-7.65,12.07-10.6,16.52-.65.99-1.95,1.3-2.99.75-4.16-2.23-7.74-3.94-10.74-5.13-5.99-2.39-11.68-2.57-17.09-.54-3.72,1.41-7.75,3.29-12.05,5.65-1.11.6-2.48.24-3.14-.82l-8.23-13.28s-.06-.1-.1-.13c-2.99-3.48-4.66-7.24-5.04-11.25ZM213.01,141.56l5.87-4.96c.72-.63,1.16-1.52,1.19-2.48l.81-31.5c0-.19-.05-.4-.13-.58-.73-1.43-1.45-3.36-2.11-5.77-.02-.08.02-.17.11-.2.04-.01.08,0,.11.04,2.04,3.71,4.18,7.05,6.46,10,1.6,2.1,3.7,2.48,6.27,1.14,6.34-3.28,11.59-6.36,18.46-6.36s12.12,3.08,18.45,6.37c2.57,1.34,4.66.95,6.27-1.14,2.28-2.95,4.43-6.29,6.47-10,.02-.04.11-.04.11-.04h.01c.08.04.13.12.11.2-.67,2.41-1.39,4.34-2.12,5.77-.08.18-.13.39-.13.58l.8,31.5c.04.96.47,1.86,1.19,2.48l5.87,4.96c.08.06.12.16.11.25-.02.16-.16.27-.31.24-10.42-.98-16.74-1.42-18.97-1.34-8.21.33-14.16.48-17.85.48-3.7-.01-9.65-.17-17.85-.49-2.23-.08-8.54.36-18.97,1.34-.1.01-.19-.04-.25-.11-.1-.12-.07-.29.05-.39ZM177.11,159.17c1.61-.92,3.07-1.76,4.37-2.53,5.21-3.06,13.34-5.89,16.09-7.16,16.92-7.78,35.21-5.72,52.44-5.72,17.23.01,35.51-2.05,52.44,5.74,2.74,1.27,10.87,4.1,16.07,7.16,1.3.77,2.76,1.61,4.37,2.53.08.05.14.13.16.23.02.16-.08.31-.25.34-6.17,1.13-11.74,3.63-16.7,7.48-.86.66-4.23,3.67-10.1,9.04-.29.27-.6.48-.95.65-2.64,1.31-5.46,1.72-8.47,1.22-11.51-1.95-24.89-3.88-36.57-3.88h0c-11.69,0-25.07,1.93-36.58,3.87-3.01.51-5.83.1-8.47-1.22-.35-.17-.66-.39-.95-.65-5.87-5.36-9.24-8.37-10.1-9.04-4.96-3.86-10.53-6.35-16.7-7.48-.1-.01-.18-.07-.23-.16-.07-.16-.01-.34.13-.41ZM295.59,180.22c-3.29,5.7-6.1,11.1-8.45,16.18-10.76,23.3-17.7,39.26-20.83,47.87-2.83,7.8-5.89,16.11-9.17,24.92-1,2.71-3.9,9.17-7.12,9.17h0c-3.22,0-6.11-6.47-7.11-9.17-3.27-8.82-6.3-17.13-9.13-24.93-3.12-8.62-10.05-24.58-20.78-47.9-2.34-5.1-5.14-10.49-8.42-16.19-.05-.1-.06-.2-.01-.3.07-.13.25-.2.4-.13,2.82,1.19,5.76,1.53,8.83,1.01,11.53-1.92,24.12-3.76,36.29-3.75,12.17,0,24.76,1.86,36.29,3.8,3.07.52,6.01.18,8.83-1.01.1-.05.22-.05.3.01.13.1.17.28.08.42ZM112.96,217.58c.89-3.46,1.45-5.59,1.66-6.4,5.31-19.81,17.15-34.36,35.5-43.68,16.34-8.3,32.98-8.04,46.39,5.53.01.02.02.04.04.05.35.37.3.96-.08,1.31-7.58,6.64-15.13,12.48-27.85,22.4-7.02,5.48-11.06,8.55-12.11,9.22-10.21,6.42-21.59,8.21-34.12,8.86-2.13.11-5.11,1.14-8.93,3.11-.07.02-.16.05-.24.02-.18-.05-.3-.23-.25-.42ZM23.69,485.55c-.07.13-.18.24-.31.33-.41.24-.93.11-1.17-.3l-6.47-11.22c-.13-.22-.17-.48-.11-.72l3.61-15.17c.11-.42.41-.77.81-.94h0s2.02-.86,2.02-.86c.06-.02.14-.02.22-.02.24.02.41.24.37.47-.53,4.47-1.29,8.9-2.28,13.3-.27,1.19-.18,2.59.24,4.22.08.35.23.69.43,1,2.47,3.83,4.59,6.16,2.63,9.92ZM36.36,428.87c3.19,4.65,1.94,11.88,1.4,15.99-.13,1.36-.08,2.75.16,4.1l2.61,14.7c.1.58-.16,1.16-.65,1.47-8.23,5.18-9.12-10.3-8.83-14.6.02-.34-.07-.69-.29-.95-.48-.6-1.35-.7-1.95-.23-3.51,2.76-6.76,4.71-9.76,5.86-1.17.46-2.05,1.45-2.34,2.66l-3.47,14.54c-.35,1.47-.1,3.01.69,4.29,2.29,3.7,3.53,6.34,5.89,9.35,1.43,1.83,1.71,3.94.81,6.33-.02.07-.06.13-.11.18-.2.22-.55.23-.77.02-2.49-2.4-5.37-4.74-8.65-7.01-2.24-1.54-3.57-4.39-4.29-7.45-1.58-6.66-2.81-11.9-3.69-15.74-.63-2.7-.53-5.48.28-8.36,4.51-16.04,6.78-24.11,6.82-24.22.49-1.45,1.13-5.02,1.04-7.27-.13-3.34.2-7.53.99-12.57h0c.01-.1.06-.18.13-.24.16-.13.41-.11.54.05.53.59,1.2,2.6,2.05,3.76,4.47,6.16,10.41,7.68,17.82,4.55.07-.02.16-.04.24-.02.25.04.42.27.39.52l-.64,3.75c-.06.4,0,.81.18,1.17.49,1,1.63,2.78,3.41,5.37ZM110.58,310.02c-11.53,13.74-18.06,25.54-30.4,46.05-1.81,3-4.43,6.84-7.89,11.56-5.93,8.06-13.75,15.75-20.01,22.6-6.8,7.43-12.36,15.01-16.69,22.72-.24.43-.58.83-.98,1.14-4.82,3.86-12.29,4.14-16.53-.69-1.29-1.46-2.42-3.63-3.4-6.49-.13-.39-.12-.82.04-1.2.43-1.07.93-1.94,1.31-3.1,6.71-20.56,12.17-36.7,16.4-48.44,5.9-16.4,13.34-30.56,22.3-42.5,3.9-5.21,10.13-12.04,18.69-20.51.06-.06.14-.11.23-.11.19-.01.36.13.37.33.35,3.41,2.47,4.74,6.36,3.96,2.95-.59,5.83-1.23,8.64-1.9,1.42-.34,2.87.4,3.41,1.74.33.8.57,1.88.7,3.24.66,6.83.53,17.98,9.06,15.62,3.02-.83,5.76-2.24,8.21-4.21.04-.02.1-.02.13,0,.06.04.08.12.05.18ZM150.84,252.51c-.1,1.59-1.23,4.1-3.39,7.51-1.48,2.33-7.33,11.06-17.56,26.19-6.42,9.51-14.6,17.5-24.57,23.97-1.47.95-3.37,1.53-5.7,1.71-.4.04-.8-.12-1.06-.43-1.08-1.28-1.69-2.46-1.81-3.54-.75-6.53-1.22-10.37-1.41-11.52-.73-4.36-3.33-6.1-7.76-5.19-2.9.59-5.83,1.23-8.78,1.92h-.05c-1.04.22-2.05-.46-2.27-1.49-.28-1.33-.18-2.76.29-4.31.51-1.7,1.48-5.07,2.92-10.11.43-1.52,1.02-3,1.76-4.4,4.45-8.49,7.08-13.9,7.92-16.23,5.17-14.65,13.1-26.33,23.78-35.03,3.42-2.81,7.94-3.9,13.17-4.3,8.23-.61,14.99-1.83,20.27-3.64h0c.08-.01.17-.01.25.01.23.06.36.3.3.53-.88,3.05-.96,6.51-.27,10.37,1.88,10.47,3.04,17.03,3.48,19.69.47,2.89.63,5.66.47,8.3ZM177.04,350.55c.19-14.06-.53-27.35-4.34-40.12-.76-2.55-2.45-6.27-5.08-11.15-6.46-11.98-11.35-25.66-14.66-41.08-.16-.75-.18-1.53-.05-2.29.69-4.04.67-8.19-.05-12.47-1.19-7.08-2.22-12.68-3.05-16.76-.76-3.71-.92-7.29-.47-10.75.29-2.22,1.39-3.48,3.51-4.65,3.63-1.99,7.18-4.36,10.69-7.1,16.92-13.27,25.15-19.13,34.74-28.05.05-.05.11-.08.17-.12.4-.22.89-.06,1.11.34,10.31,18.97,19.63,38.83,27.93,59.59,3.12,7.8,5.23,13.62,6.33,17.48,2.06,7.22,2.89,14.65,2.51,22.29-.3,5.78-2.13,13.04-5.51,21.76-3.41,8.78-7.36,17.36-11.86,25.74-3.92,7.29-6.53,13.78-7.83,19.47-.61,2.7-.86,7.71-.7,15.03.17,7.83.17,12.83-.01,15.01-.53,6.78-3.59,10.71-10.28,13.62-.57.24-3.19,1.54-7.88,3.92-4.27,2.16-8.4,5.23-11.62,7.52-4.1,2.9-7.39,6.12-9.86,9.65-.02.04-.07.05-.12.05-.08-.01-.13-.07-.13-.16,4.16-23.51,6.33-42.42,6.52-56.78ZM195.83,774.33c-6.18,17.51-11.46,36-15.84,55.49-2.43,10.82-4.05,20.11-2.86,30.09.2,1.75.16,3.51-.14,5.3-1.27,7.27-1.64,13.71-1,20.84.72,8.07,1.76,16.84-5.82,20.64-8.83,4.42-23.28,1.08-29.76-6.7-.47-.55-1.07-.98-1.75-1.22-6.04-2.14-12.13-3.9-18.3-5.27-2.08-.47-3.83-1.28-5.27-2.43-.94-.77-1.23-2.08-.67-3.17,2.05-4.04,5.07-6.24,9.09-6.63.61-.06,1.18-.39,1.53-.88,1.81-2.55,4.34-1.93,6.54-3.6,5.02-3.82,9.58-8.57,13.68-14.27.27-.36.45-.78.53-1.23,2.17-11.19,3.24-18.29,3.24-21.28-.01-6.16-.59-15.29-1.74-27.4-1.27-13.53-2.84-29.65-4.74-48.35-.01-.12.05-.23.14-.25.1-.02.19.06.23.19,1.93,7.43,10.43,14.62,17.59,7.58,5.39-5.29,9.25-14.76,12.37-20.45.04-.06.07-.11.13-.14.2-.16.49-.11.64.1,1.41,1.99,1.7,7.78,2.66,14,1.2,7.74,5.55,13.49,14.35,11.51,1.89-.43,3.47-1.34,4.74-2.72.06-.06.16-.08.25-.06.13.04.2.18.17.31h0ZM201.42,710.63c1.46,12.42,2.29,24.34,2.48,35.75.11,6.16-1.37,12.21-4.45,18.15-3.33,6.41-9.53,13.66-16.92,8.24-.33-.24-.6-.53-.83-.87-1.75-2.63-2.75-5.24-3.02-7.83-.48-4.59-1.16-8.74-2.01-12.42-.22-.9-.98-1.95-2.29-3.13h0c-.31-.28-.77-.31-1.13-.08-1.94,1.29-3.16,2.45-3.66,3.48-3.31,6.76-6.55,12.19-9.71,16.3-3.23,4.19-6.76,4.78-10.58,1.76-.3-.24-.57-.52-.8-.84-2.45-3.63-4.22-8.24-5.33-13.87-1.4-7.05-2.24-14.69-2.53-22.94-.57-16.01,3.47-33.74,9.39-48.9.54-1.37,2.08-2.06,3.46-1.53,1.55.59,3.06,1.58,4.54,2.95,3.28,3.05,6.87,6.3,10.76,9.74,2.75,2.42,5.8,3.66,9.13,3.7.4,0,.8-.1,1.16-.29,3.61-1.99,6.29-3.89,9.23-3.82,8,.18,11.42,6.25,11.9,13.7.02.4.16.77.39,1.08l.37.52c.24.34.4.74.45,1.16ZM206.22,664.36c-5.23,6.18-8.75,11.19-7.74,19.63.63,5.21,1.14,9.45,1.55,12.74.02.11-.02.22-.11.29-.14.11-.34.08-.45-.05-4.11-5-9.19-6.57-15.24-4.67-.67.2-1.9.86-3.69,1.93-.88.54-2.19.98-3.93,1.33-.4.07-.8.02-1.17-.13-2.11-.9-3.89-1.99-5.34-3.24-4.11-3.54-6.98-6.13-8.63-7.77-2.37-2.36-6.48-5.83-9.88-5.14-.06.02-.13.02-.2,0-.22-.06-.34-.29-.28-.51,2.16-7.77,3.28-12.76,3.36-14.94.52-11.95,1.77-24.06,3.74-36.32.01-.05.06-.1.11-.11.07-.04.17.01.19.1,1.43,5.46,4.16,12.93,9.06,16.31.34.23.71.4,1.11.51,5.59,1.4,9.45-5.11,11.45-9.63,2.33-5.27,4.53-10.35,6.63-15.25.07-.17.23-.29.41-.29.27-.01.48.18.49.45.42,10.39.29,17.87,2.82,26.28,1.13,3.77,2.83,6.47,5.1,8.1,5.28,3.8,12.24,1.35,15.81-3.88.9-1.31,2.07-3.42,3.51-6.3h0c.06-.14.2-.2.34-.18.16.04.27.19.23.36-1.17,6.19-4.49,14.8-9.25,20.41ZM236.05,549.58c-8.37,30.41-12.68,46.79-12.9,49.14-.05.46-.2.9-.45,1.29-.45.69-.69,1.19-.73,1.49-2.06,14.05-4.53,29.07-9.8,41.99-1.47,3.63-3.67,6.53-6.61,8.7-.35.27-.75.46-1.17.58-10.24,2.93-12.65-9.72-13.21-16.97-.42-5.35-.71-10.76-.89-16.24-.04-.78-.27-1.78-.71-3-.11-.29-.29-.54-.52-.75-.77-.67-1.94-.59-2.6.18-2.96,3.42-5.48,10.15-8.86,17.99-1.88,4.35-6.8,12.52-11.47,4.82-3.13-5.14-5.3-10.83-6.52-17.07-1.25-6.4-1.93-9.82-2.02-10.27-11.02-48.11-7.71-99.16,1.55-147.79,2.57-13.41,5.4-24.47,8.49-33.16.64-1.82.98-5.98,1.01-12.47.01-1.84,1-4.28,2.95-7.31,4.49-6.99,10.12-10.62,18.36-16.63.06-.05.13-.05.19,0,.07.06.1.17.04.24-4.39,5.74-6.05,11.86-8.43,19.76-3.95,13.1-8.13,24.78-7.98,37.98.22,19.22,12.83,32.79,31.29,35.93,11.29,1.94,21.84,2.16,31.66.66,3.8-.57,7.16-2.76,10.1-6.58h0c.05-.06.11-.08.18-.08.12.01.2.11.2.23-2.52,27-6.24,49.45-11.17,67.34ZM248.69,460.22c-.04,4.74-.25,8.62-.67,11.65-1.3,9.34-6.77,14.31-16.42,14.92-5.31.34-11.64.22-18.98-.36-14.13-1.12-26.81-6.41-32.98-19.51-7.18-15.22-1.02-32.58,3.35-47.82,3.29-11.4,5.7-23.01,15.3-28.57,12.19-7.05,28.45-8.27,39.98.73,6.3,4.92,9.78,14.57,10.06,22.25.4,10.98.52,26.54.36,46.7ZM250.04,406.7c-.07,0-.29-.75-.65-2.23-1.96-8.04-6.47-14.04-13.52-18.01-7.52-4.24-16.36-5.24-26.54-2.99-.05.01-.1-.01-.13-.04-.08-.06-.1-.17-.04-.25,2.65-3.19,3.96-7.16,3.95-11.88-.05-14.46-.71-22.11,1.81-32.39.72-2.93,2.58-7.19,5.58-12.8,5.4-10.09,10.07-20.42,14.03-31.03,3.58-9.59,5.05-18.8,4.37-28.34-.02-.12.06-.23.18-.25s.23.06.25.18c1.25,4.53,5.06,14.62,10.7,14.62s9.46-10.09,10.7-14.62c.02-.12.13-.2.25-.18s.2.13.18.25c-.67,9.54.81,18.75,4.39,28.34,3.95,10.6,8.63,20.94,14.03,31.01,3,5.6,4.86,9.87,5.59,12.8,2.52,10.28,1.86,17.93,1.81,32.39-.01,4.72,1.3,8.69,3.95,11.88.04.04.04.08.04.13-.01.1-.11.17-.2.16-10.18-2.24-19.03-1.24-26.54,3-7.05,3.98-11.56,9.98-13.52,18.01-.36,1.48-.58,2.23-.65,2.23ZM251.44,460.31c-.2-20.16-.12-35.71.25-46.69.25-7.69,3.71-17.35,10-22.28,11.51-9.04,27.77-7.86,39.98-.83,9.62,5.53,12.05,17.13,15.37,28.52,4.41,15.23,10.6,32.58,3.46,47.81-6.13,13.12-18.8,18.44-32.92,19.59-7.34.59-13.66.73-18.98.41-9.65-.58-15.13-5.54-16.46-14.88-.42-3.04-.66-6.92-.71-11.65ZM352.76,812.63c-1.14,12.1-1.72,21.22-1.74,27.38-.01,2.99,1.07,10.09,3.24,21.28.08.45.27.87.53,1.23,4.08,5.69,8.64,10.43,13.66,14.25,2.2,1.67,4.74,1.05,6.54,3.6.35.49.92.82,1.53.88,4,.39,7.02,2.59,9.07,6.63.55,1.08.27,2.4-.67,3.17-1.43,1.16-3.18,1.96-5.27,2.43-6.16,1.36-12.25,3.12-18.29,5.25-.67.24-1.28.66-1.75,1.22-6.48,7.78-20.92,11.12-29.75,6.7-7.58-3.8-6.54-12.57-5.81-20.64.64-7.12.27-13.57-1-20.83-.3-1.8-.35-3.55-.14-5.3,1.19-9.96-.42-19.25-2.86-30.07-4.37-19.48-9.65-37.97-15.82-55.46-.04-.08-.01-.18.06-.25.11-.1.27-.1.36,0,1.27,1.39,2.83,2.29,4.72,2.72,8.8,1.99,13.15-3.76,14.35-11.49.96-6.22,1.25-12.01,2.66-14,.04-.06.08-.1.14-.13.23-.12.51-.04.63.18,3.12,5.69,6.99,15.16,12.36,20.45,7.16,7.04,15.66-.14,17.59-7.58.04-.13.13-.22.23-.18.1.01.14.12.14.24-1.89,18.69-3.47,34.81-4.75,48.34ZM350.05,683.46c5.9,15.16,9.93,32.88,9.34,48.88-.29,8.25-1.13,15.89-2.54,22.93-1.12,5.61-2.89,10.23-5.34,13.86-.23.33-.49.6-.8.84-3.82,3.01-7.35,2.42-10.57-1.77-3.16-4.11-6.39-9.54-9.7-16.3-.51-1.04-1.72-2.19-3.65-3.48-.36-.23-.82-.19-1.13.08h0c-1.31,1.18-2.07,2.23-2.3,3.13-.86,3.67-1.53,7.82-2.01,12.41-.28,2.59-1.29,5.21-3.04,7.82-.23.34-.51.63-.83.87-7.39,5.42-13.58-1.84-16.9-8.24-3.06-5.94-4.53-11.99-4.42-18.15.2-11.4,1.04-23.3,2.51-35.73.05-.42.2-.82.46-1.16l.37-.52c.23-.31.36-.69.39-1.08.48-7.45,3.9-13.51,11.9-13.69,2.94-.07,5.61,1.84,9.22,3.83.36.19.76.29,1.16.29,3.34-.04,6.39-1.27,9.13-3.69,3.89-3.43,7.48-6.68,10.77-9.72,1.48-1.37,2.99-2.36,4.54-2.95,1.36-.53,2.9.16,3.45,1.53ZM345.23,658.85c.29,6.7,1.52,13.19,3.67,19.48.04.06.04.12.04.19-.01.33-.28.58-.6.58-2.35-.06-4.68.9-6.96,2.88-3.72,3.24-7.12,6.3-10.17,9.21-2.1,1.99-4.58,3.42-7.43,4.3-.37.12-.77.11-1.14-.01-2.76-.9-4.9-2.71-7.48-3.43-4.52-1.27-8.81-.25-12.88,3.04-.82.66-1.37,1.4-1.65,2.23-.05.13-.18.2-.31.2-.18-.01-.31-.16-.31-.34,1.22-10.27,3.74-18.82-1.48-26.79-2.52-3.84-6.54-7.76-8.98-12.59-3.07-6.07-5.06-12.64-5.98-19.71h0c1.12,5.39,3.47,10.17,7.04,14.34.11.13.24.25.39.35l3.27,2.27c.13.1.29.17.45.2,6.75,1.77,11.48-.77,14.22-7.62,1.4-3.51,2.28-7.59,2.63-12.27.47-6.24.78-11.6.93-16.1,0-.1.05-.17.12-.22.12-.06.28-.02.36.1.78,1.36,1.55,2.92,2.3,4.69,3.14,7.53,5.3,12.31,6.47,14.35.71,1.23,3.53,4.88,5.14,5.61,5.13,2.33,8.21-1.49,10.52-5.8,1.67-3.12,2.99-6.3,3.96-9.57.04-.13.14-.24.29-.25.19-.02.35.12.37.3,1.54,10.55,2.78,20,3.23,30.36ZM331.49,418.22c.02,6.49.36,10.64,1,12.45,3.08,8.69,5.9,19.72,8.46,33.11,9.21,48.57,12.48,99.54,1.43,147.56-.1.45-.77,3.86-2.02,10.25-1.22,6.23-3.39,11.9-6.52,17.04-4.68,7.69-9.58-.47-11.45-4.82-3.36-7.83-5.88-14.54-8.83-17.97-.2-.24-.47-.42-.77-.53-.95-.35-2.01.14-2.35,1.1-.45,1.2-.67,2.2-.71,2.99-.18,5.47-.48,10.88-.9,16.22-.55,7.23-2.98,19.86-13.19,16.93-.42-.12-.82-.31-1.17-.58-2.93-2.17-5.13-5.06-6.59-8.69-5.25-12.9-7.71-27.91-9.76-41.93-.05-.3-.29-.81-.72-1.49-.24-.39-.4-.83-.45-1.29-.23-2.35-4.52-18.7-12.86-49.06-4.9-17.87-8.6-40.28-11.1-67.25,0-.07.04-.13.08-.18.08-.07.23-.06.3.04h0c2.93,3.81,6.29,6,10.07,6.57,9.81,1.51,20.35,1.29,31.62-.64,18.44-3.12,31.04-16.65,31.27-35.85.17-13.17-4-24.85-7.93-37.92-2.39-7.9-4.04-14.01-8.41-19.74-.04-.06-.04-.13,0-.19.05-.08.16-.1.23-.05,8.22,6,13.83,9.63,18.31,16.62,1.95,3.02,2.94,5.46,2.95,7.3ZM347.16,258.16c-3.31,15.41-8.21,29.11-14.66,41.1-2.64,4.88-4.33,8.59-5.08,11.15-3.81,12.78-4.53,26.07-4.33,40.15.19,14.35,2.37,33.29,6.53,56.8,0,.05-.01.08-.05.12-.06.06-.2-.01-.2-.01h0c-2.47-3.53-5.76-6.75-9.87-9.65-3.22-2.29-7.35-5.37-11.62-7.53-4.7-2.37-7.33-3.67-7.89-3.92-6.69-2.9-9.75-6.83-10.28-13.62-.18-2.18-.18-7.18-.01-15.01.14-7.33-.1-12.34-.71-15.04-1.3-5.69-3.92-12.18-7.83-19.47-4.51-8.37-8.46-16.97-11.87-25.75-3.39-8.74-5.22-15.99-5.52-21.77-.39-7.64.45-15.07,2.51-22.3,1.1-3.87,3.21-9.69,6.33-17.48,8.3-20.78,17.62-40.65,27.93-59.63.04-.06.07-.12.12-.17.3-.34.82-.35,1.16-.05,9.59,8.92,17.83,14.78,34.76,28.05,3.51,2.74,7.06,5.11,10.69,7.1,2.12,1.17,3.22,2.43,3.51,4.66.45,3.46.29,7.04-.47,10.75-.83,4.08-1.84,9.68-3.04,16.77-.72,4.28-.73,8.43-.05,12.47.13.76.11,1.54-.05,2.29ZM370.23,286.21c-10.18-15.12-16.01-23.83-17.5-26.16-2.16-3.41-3.28-5.92-3.36-7.49-.16-2.64,0-5.41.47-8.29.45-2.65,1.6-9.19,3.49-19.64.7-3.87.61-7.31-.25-10.36-.02-.08-.02-.17,0-.25.08-.23.33-.35.55-.28h-.01c5.27,1.82,12,3.04,20.22,3.65,5.23.41,9.74,1.51,13.15,4.31,10.65,8.69,18.56,20.35,23.7,34.98.83,2.33,3.46,7.74,7.89,16.21.73,1.4,1.31,2.88,1.75,4.4,1.43,5.02,2.4,8.39,2.9,10.09.46,1.55.55,2.99.28,4.3v.04c-.23,1.04-1.25,1.67-2.29,1.45-2.95-.69-5.87-1.33-8.77-1.92-4.42-.9-7.01.82-7.75,5.17-.19,1.14-.66,4.98-1.42,11.49-.12,1.08-.72,2.27-1.81,3.54-.27.3-.66.46-1.06.42-2.33-.18-4.22-.76-5.68-1.71-9.94-6.46-18.11-14.43-24.51-23.94ZM464.47,412.86c-4.33-7.7-9.87-15.25-16.65-22.68-6.25-6.84-14.06-14.51-19.98-22.54-3.45-4.7-6.07-8.54-7.87-11.53-12.31-20.46-18.83-32.24-30.34-45.94-.02-.04-.02-.1,0-.13.04-.06.12-.08.18-.05,2.45,1.96,5.17,3.36,8.18,4.19,8.52,2.35,8.39-8.76,9.05-15.58.13-1.36.36-2.45.69-3.24.55-1.34,2-2.07,3.41-1.72,2.8.67,5.66,1.3,8.62,1.89,3.89.77,6-.54,6.35-3.95,0-.08.05-.17.11-.23.14-.13.36-.13.49.01h0c8.53,8.45,14.75,15.27,18.64,20.46,8.95,11.92,16.36,26.05,22.25,42.4,4.22,11.7,9.68,27.81,16.37,48.32.39,1.16.88,2.02,1.31,3.1.16.39.17.82.04,1.2-.98,2.86-2.11,5.01-3.4,6.47-4.23,4.83-11.68,4.54-16.5.69-.4-.31-.72-.7-.96-1.13ZM477.85,485.43c-.08.13-.2.25-.35.33-.41.22-.92.06-1.12-.35-1.93-3.74.18-6.04,2.65-9.82.19-.31.35-.64.43-.99.42-1.6.51-3,.25-4.18-.96-4.37-1.7-8.77-2.2-13.19-.01-.07,0-.14.04-.22.1-.22.34-.31.55-.22l2,.86h0c.4.17.69.51.8.93l3.52,15.05c.06.24.02.51-.11.72l-6.46,11.09ZM496.93,462.38c-.88,3.83-2.11,9.07-3.67,15.74-.72,3.06-2.05,5.89-4.29,7.43-3.27,2.28-6.15,4.61-8.64,7.01-.05.05-.11.08-.18.11-.28.11-.59-.04-.7-.31-.9-2.37-.63-4.48.81-6.31,2.35-3.01,3.59-5.65,5.88-9.35.78-1.28,1.04-2.82.69-4.29l-3.48-14.53c-.29-1.22-1.16-2.2-2.33-2.66-3-1.14-6.25-3.08-9.76-5.84-.27-.2-.61-.31-.95-.29-.76.05-1.34.71-1.29,1.47.29,4.3-.59,19.77-8.82,14.6-.49-.31-.76-.89-.65-1.47l2.6-14.7c.24-1.35.29-2.72.16-4.08-.54-4.11-1.8-11.34,1.4-15.99,1.77-2.58,2.9-4.36,3.4-5.36.18-.36.24-.77.18-1.17l-.64-3.75c-.01-.08-.01-.17.02-.24.1-.24.37-.35.6-.25,7.41,3.11,13.34,1.59,17.81-4.55.84-1.16,1.52-3.17,2.05-3.76.06-.07.14-.12.24-.13.2-.04.4.12.43.33h0c.78,5.02,1.12,9.22.99,12.56-.1,2.24.54,5.82,1.04,7.27.04.11,2.31,8.17,6.83,24.19.81,2.88.9,5.66.28,8.35Z"/>
  </g>
</svg>