<?xml version="1.0" encoding="UTF-8"?>
<svg id="Layer_2" data-name="Layer 2" xmlns="http://www.w3.org/2000/svg" viewBox="0 0 500 910.86">
  <defs>
    <style>
      .cls-1 {
        fill: #474967;
      }
    </style>
  </defs>
  <g id="Layer_1-2" data-name="Layer 1">
    <path id="Front" class="cls-1" d="M498.02,443.67c-.27-2.34-1.34-5.3-2.22-7.08-5.23-10.48-9.65-21.71-13.26-33.7-1.7-5.63-5.23-12.23-7.64-18.1-7.7-18.71-16.44-41.68-26.2-61.03-3.49-6.93-6.52-11.99-9.08-15.18-3.14-3.94-8.76-10.37-16.83-19.32-2.57-2.84-4.19-5.1-4.89-6.76-8.49-20.2-15.13-35.61-27.85-51.32-.34-.41-.58-.89-.72-1.41-4.69-16.94-9.29-30.6-13.79-41-3.79-8.73-10.14-15.89-19.05-21.47-3.54-2.23-9.12-4.01-12.67-4.9-4.89-1.22-10.18-2.51-15.87-3.87-.98-.23-1.89-.69-2.65-1.35-4.1-3.52-6.98-5.69-8.64-6.51-.22-.11-7.75-3.41-22.59-9.93-2.95-1.3-6.61-4.18-10.99-8.63-.28-.28-.43-.65-.46-1.05-.37-6.23-.65-14.11-.86-23.62-.07-3.41.23-6,.92-7.78.95-2.48,1.18-4.84,1.37-6.89.04-.37.34-.66.71-.67,9.64-.36,10.11-14.81,9.69-22.24-.25-4.57-2.19-7.34-5.84-8.31-.39-.1-.63-.48-.55-.87.37-2.28.53-4.16.46-5.63-.37-7.57-.33-14.65.14-21.26.82-11.46-1.86-21.9-12.3-27.47-4.6-2.45-9.12-4.02-13.55-4.72-1.06-.17-2.13.25-3.22,1.26-.39.36-.96.41-1.42.14-9.59-5.78-24.71-2.33-33.78,2.72-1.2.67-1.45,1.52-.72,2.54.02.04.05.08.06.12.14.33-.01.7-.34.83-5.37,2.25-12.34,10.6-14.32,16.48-.93,2.76-1.14,6.89-.65,12.4.9,10.11.89,15.61,2.82,22.88.08.3-.08.63-.39.75-8.31,3.08-5.43,17.96-3.36,24.35,1.23,3.78,3.77,5.78,7.64,5.99.51.02.92.43.94.95.12,2.89.69,5.65,1.7,8.29.35.9.52,1.88.49,2.86l-.63,26.75c-.01.3-.12.58-.33.8-4.46,4.65-8.34,7.71-11.64,9.17-11.82,5.22-18,7.93-18.54,8.13-4.88,1.84-8.94,4.93-12.48,8.24-.69.64-1.53,1.08-2.45,1.29-4.57,1.01-10.24,2.41-17.02,4.19-6.35,1.66-11.49,4-15.43,7.01-7.13,5.46-12.3,11.98-15.49,19.54-4.46,10.52-8.98,23.96-13.55,40.33-.18.61-.47,1.2-.88,1.71-8.35,10.54-15.16,21.96-20.43,34.26-2.31,5.39-4.67,10.91-7.1,16.57-.33.75-.72,1.47-1.22,2.12-1.58,2.13-2.45,3.3-2.59,3.49-5.24,6.72-17.44,18.14-23.55,29.19-12.7,23.01-19.56,42.31-32.09,73.39-.19.47-.42.93-.69,1.36-.76,1.22-1.28,2.19-1.55,2.93-2.41,6.18-5.14,13.97-8.2,23.38-.93,2.84-3.65,9.02-8.18,18.55-.77,1.63-1.45,3.65-1.98,5.45-.18.6-.29,1.22-.35,1.84-.86,8.57-1.4,14.79-1.65,18.7-.35,5.52-.29,9.29.17,11.32,1.06,4.66,2.24,9.28,3.55,13.83.19.66.81,1.11,1.51,1.07,3.65-.19,6.1-2,7.34-5.42.14-.39.45-.71.83-.87.8-.33,1.58-.07,2.43-.58,1.69-1,2.52-2.33,2.51-3.99-.1-9.48-.8-15.59,1.07-20.58.69-1.84,1.31-3.66,1.9-5.47.4-1.22.58-4.06.55-8.53,0-.07.11-.11.11-.11h.58c.19.01.34.18.33.37-.3,6.12-.18,18.03,8.48,18.03,3.7,0,5.58-4.55,5.83-7.78.25-3.1.63-7.92,1.1-14.46.28-3.79,1.24-7.11,2.92-9.95,1.93-3.29,2.96-5.42,3.1-6.39.54-3.84-.18-7.31-2.17-10.41-.42-.66-.47-1.48-.14-2.19,3.08-6.58,7.41-12.26,12.99-17.07,5.99-5.13,13.34-10.61,18.16-15.2,12.52-11.91,22.55-26.06,30.12-42.41,2.14-4.64,4.98-9.57,8.34-14.19,11.67-16.13,19.7-27.13,24.07-33.02,3.22-4.33,6.41-8.02,9.6-11.1,3.63-3.51,5.84-6.47,8.26-10.06.05-.08.13-.13.22-.16.2-.05.4.07.45.27,3.48,12.96,8.02,25.32,13.64,37.07,4.71,9.87,7.36,16,7.94,18.4,1.89,7.84,2.4,15.55,1.54,23.12-2.87,25.08-5.51,52.36-9.3,76.32-.67,4.3-2.71,13.77-6.12,28.42-10.93,47.04-14.37,98.78-6.52,147.01,1.12,6.93,2.96,15.05,5.53,24.38.11.42.18.86.18,1.29.2,7.87-.41,15.02-1.84,21.47-1.43,6.41-1.35,10.42-1.98,16.85-.04.4-.12.8-.23,1.19-3.48,11.84-5.43,17.2-7.39,26.97-4.69,23.37-4.88,47.49-1.43,71.45,2.67,18.56,4.99,40.06,5.41,55.25.25,8.96-2.11,18.01-2.63,26.13-.01.13-.05.27-.11.39l-14.46,25.03c-.04.06-.08.12-.14.17-8.11,7.2-19.91,15.83-20.14,25.66-.06,2.29,1.02,3.89,3.23,4.81.36.16.64.45.78.82.59,1.53,1.48,2.46,2.67,2.79.43.12.8.42,1,.83.98,1.96,2.41,2.98,4.3,3.04.72.02,1.42.28,1.99.72,2.71,2.12,5.16,2.53,7.36,1.23.55-.33,1.26-.3,1.8.06,8.18,5.61,14.61.71,18.97-6.42.18-.29.45-.52.76-.65,7.12-2.89,10.78-7.71,10.96-14.44.13-4.42,4.17-6.13,8.04-8.47,7.32-4.43,6.98-10.37,6.29-18.13-.16-1.89-.48-4.55-.96-8-.08-.59.07-2.61.46-6.07.05-.45.2-.88.46-1.27,1.77-2.75,2.58-5.94,2.4-9.59-.7-14.02-1.19-23.7,1.29-36.14,3-15.1,7.1-30.62,12.29-46.6.28-.87.69-1.69,1.19-2.43,4.12-6.07,6-12.79,5.64-20.17-.76-15.54-3.06-31.66-4.19-45.79-.27-3.31-.02-6.64,1.34-9.4,3.19-6.45,11.02-18.83,13.53-27.76,1.65-5.92,2.77-11.42,3.34-16.5,1.81-16.25,3.16-28.66,6.51-42.59,2.59-10.76,4.34-17.43,5.26-20.03,6.47-18.19,10.61-31.09,12.41-38.72,2.84-12.04,4.11-18.58,3.81-19.63-1.58-5.47-2.1-9.49-1.55-12.06h0c.12-.6.64-1.04,1.24-1.05.71-.01,1.3.55,1.31,1.26.11,2.66.17,5.58.2,8.75.04,3.43.93,9.19,2.67,17.26,2.31,10.6,6.28,22.62,11.28,36.93,6.98,19.97,11.16,40.6,13.36,61.75,1.36,13.02,2.89,24.46,7.93,33.9,5.92,11.07,9.11,17.08,9.59,18.02,1.33,2.57,1.88,5.46,1.66,8.65-.54,7.99-1.53,17.66-2.95,29-.43,3.4-.77,7.18-1.01,11.34-.4,6.66-.75,14.01,1.6,19.91.54,1.37,1.88,3.83,4,7.36.4.66.71,1.37.95,2.11,4.93,15.1,8.9,30.02,11.93,44.8,2.51,12.28,2.69,23.5,1.66,36.03-.37,4.52.49,8.46,2.58,11.84.19.34.33.71.36,1.1.66,6.25-.65,11.96-.93,17.73-.29,6.11.69,9.85,5.28,13.24,3.55,2.61,9.16,4.31,9.4,9.41.35,7.02,4.04,11.65,10.75,14.4.58.23,1.05.66,1.35,1.2,3.92,7.31,11.22,11.01,18.58,5.89.49-.34,1.13-.37,1.66-.08,2.48,1.36,5,.93,7.54-1.3.39-.35.89-.54,1.42-.54,3.95,0,3.75-3.06,6.47-4.36.71-.34,1.41-1.11,2.12-2.33.2-.35.51-.65.86-.86,3.05-1.8,3.88-4.58,2.47-8.35-3.53-9.48-12.9-15.87-19.2-21.85-.3-.3-.57-.63-.78-1l-13.54-23.19c-.45-.77-.73-1.61-.84-2.49-.69-5.6-1.47-11.93-2.34-18.95-.54-4.43-.28-12.07.81-22.91,1.2-12.13,2.99-27.78,5.35-46.95,3.52-28.62.9-56.51-7.83-83.67-2.29-7.08-2.54-11.76-2.94-17.87-.12-1.94-.8-5.45-2.04-10.53-.52-2.16-.87-8.05-1.04-17.69-.01-.46.05-.92.18-1.35,3.33-11.91,5.47-21.75,6.43-29.48,1.69-13.58,2.65-23.01,2.89-28.31,1.69-36.83-1.48-73.55-9.51-110.16-2.4-10.91-5.42-21.84-7.02-32.68-2.4-16.16-3.87-26.84-4.41-32.06-1.88-18.03-3.2-30.02-3.98-35.95-.92-7-1.28-13.31-1.07-18.95.3-8.59,3.22-16.41,7.64-25.38,6.79-13.82,12.06-27.73,15.81-41.77.02-.08.07-.16.14-.19.14-.08.33-.04.41.11,2.3,3.64,4.83,6.82,7.59,9.55,4.87,4.83,8.69,9.24,11.47,13.2.08.13,7.01,9.64,20.81,28.53,5.37,7.37,8.6,13.24,12.73,21.7,7.84,16.04,18.44,29.82,31.78,41.35.34.3,4.79,3.98,13.38,11.02,6.06,4.98,10.64,10.87,13.72,17.66.24.53.3,1.13.18,1.7-.4,1.83-1.98,3.48-2.37,5.88-.61,3.58.25,7.01,2.57,10.6,4.32,6.72,3.93,16.79,4.47,25.03.33,4.98,3.36,9.99,9.19,7.49,5.16-2.2,5.36-12.25,5.19-17.6,0-.05,0-.08.02-.13.07-.13.24-.2.37-.13l.63.27s.04.04.04.06c-.29,5.25.6,10.16,2.67,14.72.27.58.43,1.2.49,1.84.49,5.23.59,10.78.29,16.67-.18,3.61,1.43,5.54,4.82,5.79.4.02.73.29.88.66,1.34,3.67,3.88,5.53,7.6,5.57.66,0,1.23-.45,1.4-1.08l3.79-14.73c.06-.23.1-.47.1-.71.12-6.59-.53-16.11-1.96-28.55ZM329.37,161.86c3.55.45,7.81,1.87,11.52,2.57,15.42,2.88,27.59,13.55,33.21,27.7,4.85,12.22,8.96,24.59,12.34,37.12.02.04.01.08,0,.13-.04.11-.16.16-.25.11l-10.22-4.31c-.06-.02-.13-.05-.19-.06-9.52-1.41-17.43-3.69-24.48-9.63-6.39-5.39-11.87-11.02-16.46-16.9-6.85-8.82-11.23-14.36-13.12-16.61-6.2-7.45-13.79-12.85-22.77-16.23-.11-.04-.18-.12-.22-.23-.06-.18.05-.37.23-.43h-.01c10.7-3.35,20.84-4.42,30.42-3.22ZM289.07,258.05s-.01-.02-.01-.04c.01-.01.02-.01.04-.01,10.4,1.18,20.23-.31,29.48-4.49.75-.35,1.46-.76,2.14-1.23.05-.02.11-.02.16,0,.08.05.12.14.07.23-.16.24-.35.46-.58.66-9.36,7.9-18.42,16.19-27.17,24.87-.05.05-.11.05-.17.05-.11-.02-.17-.12-.14-.22,2.1-7.75,4.25-14.6-3.82-19.82ZM288.33,290.26c.33,5.36.41,11.19.23,17.49-.55,20.05-1.65,41.59-3.28,64.62-1.29,18.08-6.41,34.72-15.38,49.91-3.77,6.39-12.61,19.71-19.89,19.71s-16.13-13.32-19.9-19.71c-8.98-15.19-14.1-31.83-15.38-49.91-1.63-23.03-2.72-44.58-3.29-64.62-.18-6.3-.1-12.13.23-17.49.06-1.01.01-2.02-.16-3.01-.95-5.51-2.14-11.12-3.6-16.85-2.3-9.07,8.85-13.07,15.08-15.67,6.04-2.52,13.43-4.57,19.85-3.82,3.47.41,5.34,2.49,5.61,6.25.07.98.59,1.46,1.54,1.46s1.46-.48,1.53-1.46c.28-3.76,2.16-5.84,5.63-6.25,6.42-.75,13.82,1.3,19.85,3.82,6.23,2.6,17.38,6.6,15.08,15.67-1.46,5.73-2.65,11.35-3.6,16.85-.16.99-.22,2-.16,3.01ZM206.97,277.7s-.01.11-.05.16c-.06.06-.18.07-.25,0-8.64-8.54-17.57-16.71-26.81-24.5-.23-.2-.41-.42-.57-.65-.04-.05-.02-.12,0-.17.05-.08.14-.11.22-.06h-.01c.67.48,1.39.88,2.12,1.23,9.12,4.11,18.82,5.58,29.07,4.41.01-.01.04,0,.04.01.02.01.01.04,0,.04-7.95,5.14-5.83,11.9-3.76,19.54ZM155.91,212.49c7.36-7.26,15.08-16.4,23.14-27.42,1.53-2.1,3.96-4.63,7.28-7.6,2.59-2.33,5.45-4.31,8.54-5.99,12.51-6.76,25.79-8.69,39.85-5.81,7.05,1.45,14.1,7.64,13.77,15.26-.07,1.54-.12,14.3-.12,38.26,0,14.55-12.18,26.31-24.89,32.2-15.3,7.07-32.38,5.4-46.51-3.11-12.22-7.36-18.88-24.54-35.47-24.73-.07-.01-.12-.04-.16-.1-.05-.08-.01-.19.07-.24h0c5.07-2.64,9.9-6.22,14.49-10.73ZM249.28,228.65c.4-1.36.61-2.05.67-2.05s.28.69.67,2.05c2.19,7.57,8.77,14.83,15.41,19.56.1.07.16.2.12.33-.04.16-.2.25-.36.22-5.12-1.07-9.36-.83-12.72.72-.39.18-.73.41-1.05.7-.73.66-1.34,1.43-1.81,2.31-.04.06-.11.1-.24.1s-.2-.04-.24-.1c-.47-.88-1.07-1.65-1.81-2.31-.31-.29-.66-.52-1.05-.7-3.36-1.54-7.6-1.77-12.72-.7-.11.02-.23-.01-.3-.11-.11-.13-.08-.31.05-.42,6.64-4.76,13.2-12.04,15.37-19.6ZM276.46,251.36c-12.7-5.9-24.87-17.67-24.84-32.23.01-23.96-.01-36.72-.08-38.26-.31-7.63,6.75-13.81,13.79-15.25,14.06-2.86,27.35-.9,39.84,5.86,3.1,1.67,5.94,3.67,8.53,6,3.31,2.98,5.75,5.52,7.28,7.61,8.05,11.02,15.75,20.18,23.11,27.44,4.59,4.53,9.41,8.11,14.48,10.75h0c.06.04.1.1.1.16,0,.1-.08.18-.18.18-16.59.18-23.28,17.35-35.5,24.7-14.14,8.48-31.23,10.14-46.51,3.05ZM282.23,135.39c0-.08.04-.17.1-.22.11-.1.28-.08.39.02,3.76,3.88,7.17,6.59,12.52,8.94,6.9,3.05,13.48,5.9,19.71,8.58,1.69.72,4.06,2.49,7.11,5.3.07.07.12.16.12.25,0,.19-.14.37-.35.37-9.49.35-18.23,1.95-26.2,4.83-.42.14-.87.19-1.3.12-6.43-1.08-11.72-5.34-12.01-12.17-.18-4.31-.2-9.66-.07-16.04ZM210.7,32.88c-.86-10.47,9.66-20.19,18.55-23.37.45-.16.8-.52.95-.96.23-.67-.25-1.29-1.45-1.86-.11-.06-.19-.16-.23-.28-.06-.23.07-.47.3-.53,7.1-1.92,11.47-2.95,13.13-3.11,6.72-.66,12.99.75,18.78,4.2.24.13.51.22.77.22.87.02,1.58-.66,1.59-1.52l.02-.66s.01-.11.02-.16c.1-.34.43-.53.77-.43,7.01,1.93,15.04,4.64,18.76,11.28,2.64,4.72,3.79,9.53,3.49,14.42-.58,9.17-.65,17.89-.23,26.17.01.27-.19.49-.46.51h-.04c-.16.01-.29-.1-.3-.25-.41-5.99-1.06-11.26-1.95-15.83-.88-4.57-4.31-13.63-9.24-14.69-1.49-.33-2.76-.28-3.78.16-10.57,4.4-21.28,5.58-32.11,3.52-2.46-.47-4.75-1.16-6.87-2.08-4.3-1.88-8.46-3.87-12.24.06-4.06,4.22-6.07,9.64-6.02,16.25.02,4.06.05,8.12.06,12.2,0,.12-.1.23-.22.23h-.05c-.13.01-.24-.1-.24-.22-.63-8.4-1.23-16.14-1.8-23.26ZM218.21,90.37v-.05c-.07-.54-.58-.92-1.12-.83-3.64.54-6.02-.92-7.17-4.39-1.47-4.49-3.7-15.46-.12-19.63,1.06-1.24,2.47-1.55,4.22-.94.11.04.23.06.35.06.61.01,1.12-.48,1.12-1.1.04-3.52.04-10.28,0-20.28-.01-3.4.99-7.01,2.99-10.83,3.36-6.43,7.53-4.19,12.43-2.11,1.72.73,3.4,1.28,5.01,1.64,11.82,2.63,23.49,1.54,35.05-3.26.48-.19,1-.27,1.51-.18,6.73,1.07,8.75,14.34,9.36,20.42.59,5.79,1.47,10.61,2.61,14.48.01.01.01.04.01.05.28.84,1.18,1.3,2.02,1.02,1.59-.53,2.92-.07,3.98,1.36,3.42,4.63.77,16.47-1.07,20.84-.78,1.83-3.05,3.17-5.2,2.9-.63-.07-1.12-.1-1.47-.07h-.01c-.41.04-.76.33-.86.72-.19.77-.46,2.61-.81,5.54-1.53,13.16-17.4,22.06-29.12,24.55-1.11.24-2.26.24-3.37.02-10.08-2.01-18.46-6.9-25.13-14.67-3.94-4.58-4.59-9.25-5.2-15.29ZM220.58,146.28c-.08-14.24,0-27.11.25-38.59,0-.08.04-.16.1-.2.11-.1.28-.07.37.04,7.6,8.45,17.11,13.76,28.53,15.93.06.01.13.01.19.01s.13-.01.2-.01c11.42-2.14,20.94-7.43,28.55-15.87.05-.06.12-.1.2-.1.14,0,.27.12.27.27.23,11.48.29,24.35.17,38.59-.05,6.37,0,10.79,4.57,15.08.05.05.07.11.07.18.01.16-.11.29-.27.29-6.47.02-13.47-.45-20.93,1.82-5.96,1.82-10.24,5.48-12.81,11-.01.04-.05.05-.05.05h-.05s-.05,0-.05,0c-.01-.01-.04-.02-.04-.05-2.57-5.53-6.82-9.2-12.78-11.02-7.46-2.28-14.46-1.83-20.93-1.87-.06,0-.13-.02-.18-.07-.11-.11-.11-.29,0-.4,4.58-4.28,4.63-8.7,4.59-15.07ZM177.98,157.99c3.06-2.81,5.43-4.58,7.12-5.3,6.23-2.66,12.81-5.52,19.71-8.55,5.36-2.34,8.77-5.05,12.53-8.92.06-.06.13-.1.22-.1.14.01.27.13.27.29.13,6.37.1,11.72-.08,16.04-.3,6.82-5.59,11.07-12.02,12.14-.43.07-.88.02-1.3-.12-7.98-2.88-16.71-4.51-26.2-4.86-.1-.01-.19-.05-.25-.12-.13-.14-.12-.37.02-.51ZM125.85,192.09c5.65-14.17,17.85-24.84,33.3-27.71,3.72-.69,7.98-2.11,11.54-2.55,9.6-1.19,19.75-.11,30.46,3.25h0c.11.05.19.12.23.23.06.18-.04.39-.22.45-8.99,3.37-16.59,8.78-22.82,16.23-1.89,2.26-6.29,7.81-13.17,16.63-4.59,5.89-10.1,11.53-16.49,16.91-7.07,5.94-15,8.2-24.53,9.61-.06.01-.13.04-.19.06l-10.24,4.3s-.08.01-.13,0c-.1-.04-.16-.14-.13-.25,3.4-12.54,7.53-24.93,12.4-37.15ZM16.16,459.99c-.06.18-.08.36-.08.55l-.41,17.14c-.01.67-.3,1.3-.81,1.76l-.31.27c-.12.1-.27.16-.41.18-.46.07-.89-.25-.96-.72-.83-5.89-1.04-9.83-.64-11.82.96-4.79,1.54-7.85,1.73-9.17.04-.31.14-.6.31-.87l4.22-6.75s.11-.06.18-.06c.11.01.17.11.16.22l-2.98,9.26ZM41.91,422.28c-.1,1.02-.94,2.87-2.52,5.55-4.23,7.14-3.87,15.89-4.59,26.01-.2,2.93-1.57,4.65-4.06,5.18-1.47.31-2.98-.61-3.47-2.16-1.55-4.86-2-10.4-1.31-16.63.01-.18,0-.36-.06-.53-.22-.65-.92-1.01-1.58-.8-6.1,2.01-6.11,8.71-9.38,13.08-1.43,1.92-2.43,3.82-3.01,5.73-2.06,6.76-2.64,13.11-1.73,19.02.64,4.24.4,7.04-2.82,9.26-.04.02-.08.05-.13.07-.35.14-.76-.02-.9-.39-3.17-8.06-4.31-16.26-3.45-24.61.76-7.26,1.3-13.2,1.6-17.83.1-1.36.48-2.7,1.13-3.92,6.64-12.4,10.43-23.65,15.46-38.95.04-.12.12-.2.23-.27.23-.12.49-.02.6.19.72,1.35,1.36,2.8,2.41,4.13,3.72,4.76,8.65,6.43,14.78,5.02.1-.02.19-.02.29,0,.31.08.48.41.4.71h0c-.42,1.57.05,3.59,1.41,6.1.71,1.29.94,3.28.71,5.99ZM114.65,312.91h-.01c-5.96,8.34-9.34,13.31-10.11,14.94-4.93,10.17-9,17.82-12.19,22.96-3.72,5.99-8.22,11.96-13.48,17.94-3.46,3.92-7.73,8.04-12.85,12.37-10.89,9.22-18.64,14.37-23.94,23.83-.27.47-.67.84-1.16,1.06-6.42,3-12.73.81-15.97-5.7-1.3-2.6-1.71-4.47-1.22-5.61,9.26-21.37,18.9-48.41,30.47-71,3.07-6.01,5.93-10.67,8.54-13.99,2.37-3.01,7.08-8.32,14.11-15.95,3.29-3.57,6.12-7.59,8.49-12.07.04-.08.1-.12.18-.08.08.04.11.11.08.18-2.92,11.34-4.36,30.03,9.82,35.03,2.81,1,6.1,1.02,9.87.08,2.64-.65,5.69-2.06,9.13-4.23.06-.04.13-.04.19,0,.08.05.11.16.05.23ZM155.76,253.38c-1.12,7.9-4.31,14.44-9.57,19.64-9.55,9.45-15.73,18.9-24.66,29.77-4.39,5.35-9.58,9.05-15.59,11.11-11.99,4.11-19.52-5.04-19.54-16.36-.01-6.4.82-12.59,2.49-18.58,4.32-15.42,10.53-30.59,20.71-43.08.34-.41.73-.77,1.17-1.08,2.66-1.86,5.23-3.41,7.67-4.65,1.46-.73,4.55-1.69,9.3-2.86,6.81-1.67,13.34-1.63,19.59.16,10.2,2.9,9.7,17.06,8.42,25.94ZM180.12,346.34c.89-7.88.45-15.48-1.33-22.81-.9-3.78-3.55-10.17-7.94-19.14-5.6-11.49-11.41-26.42-14.1-38.56-.4-1.87-.34-3.79.2-5.63,2.61-8.88,2.72-17.64.35-26.29h-.01c-.02-.06,0-.12.05-.17.07-.06.18-.06.24.01,2.17,2.19,3.47,3.55,3.89,4.07,4.04,4.95,8.26,9.46,12.69,13.53,11.07,10.23,18.19,16.73,21.38,19.52,4.04,3.53,7.75,7.4,11.11,11.59,1.11,1.37,1.75,3.08,1.83,4.86.18,4.01-.08,8.11-.8,12.29-1.05,6.16-2.01,12.49-2.89,19-1.22,8.88-1.67,15.3-1.37,19.28.86,11.47,1.29,17.28,1.29,17.43,1.05,17.89-7.16,37.9-28.66,35.76-.42-.05-.73-.43-.69-.86,1.29-12.76,2.88-27.38,4.75-43.88ZM203.8,716.46c.61,5.26.89,10.69.81,16.26-.1,7.04-1.98,10.67-5.83,17.35-.36.61-.65,1.26-.87,1.94-4.93,15.44-8.88,30.25-11.85,44.42-1.63,7.69-2.82,16.93-2.51,23.95.42,9.34.63,14.35.63,15.05,0,3.48-.77,6.32-2.3,8.53-.22.34-.36.71-.41,1.1-.89,7.85.28,13.18.81,20.76.94,13.14-14.51,10.08-14.76,21.54-.14,6.52-4.34,9.14-9.75,11.98-.6.31-1.11.76-1.47,1.33-3.36,5.18-7.08,9.36-13.41,6.9-2.13-.83-3.31-3.79-6.23-1.54-1.05.81-2.63.72-3.83-.2l-1.78-1.53c-.35-.3-.82-.43-1.27-.34-3.6.73-2.98-3.23-5.83-3.95-.54-.14-.96-.58-1.08-1.13-.58-2.95-4.64-1.73-3.95-5.58,1.16-6.52,7-12.53,11.98-16.59,4.22-3.46,6.73-5.69,7.57-6.69.49-.59.94-1.23,1.34-1.9l13.26-22.79c.49-.86.8-1.81.86-2.79.47-7.82,2.83-17.2,2.54-25.42-.48-13.28-1.9-26.53-3.14-37.23-1.93-16.66-4.35-31.4-4.66-47.13-.46-22.9,3.02-45.05,10.43-66.43.01-.04.02-.07.05-.11.18-.31.58-.42.89-.24,2.49,1.42,4.47,3.24,5.93,5.47,5.25,8.01,9.18,15.4,20.19,13.97,5.26-.67,9.91-3.05,13.94-7.11h0c.07-.07.17-.1.27-.1.19.01.34.18.33.37-.08,1.41-.41,3.17-.25,5.06.64,8.11,1.76,19.05,3.39,32.83ZM215.03,647.82c-3.4,9.35-8.17,18.01-14.32,26-3.89,5.04-8.76,8.02-14.63,8.95-8.22,1.31-13.01-4.31-16.48-10.95-2.1-4.01-5.06-6.79-8.88-8.32-.39-.16-.61-.53-.59-.94l.8-11.52c.04-.59.13-1.17.28-1.75,1.78-6.96,2.66-14.46,2.65-22.47,0-.12.06-.23.16-.3.16-.11.37-.06.48.1,2.63,3.65,6.17,4.81,10.63,3.48,2.24-.67,6.17-3.29,7.11,1.1,1.29,6.01,2.93,11.18,4.93,15.52.18.4.43.77.75,1.08,4.13,4.19,8.69,5.72,13.67,4.6,8.93-2.01,14.48-13.22,17-21.97h0s.02-.02.04-.02c.04-.01.07.01.07.05-1.1,7.92-2.31,13.71-3.65,17.37ZM246.57,510.17c-1.86,15.49-7.34,32.49-12.7,47.43-4.81,13.43-8.41,26.83-10.82,40.29-1.1,6.11-2.3,12.87-3.61,20.29-.4,2.25-1.06,4.88-1.99,7.9-2.41,7.93-7.63,23.4-17.95,24.06-10.95.7-12.4-9.88-14.52-18.37-.47-1.87-1.23-3.42-2.3-4.65-.96-1.11-2.52-1.48-3.87-.94-1.82.73-3.34,1.26-4.58,1.6-8.83,2.4-11.42-10.3-12.65-15.69-2.35-10.3-4.83-22.4-5.96-33.64-3.66-36.67-1.13-74.04,5.51-110.38,1.18-6.46,3.29-16.16,6.32-29.09,3.37-14.38,5.75-29.24,7.13-44.56,0-.04.01-.06.01-.1.1-.35.45-.55.8-.47,16.35,4.1,29.36,14.61,38.43,28.84,2.95,4.64,5.58,10.69,7.88,18.14,2.35,7.67,4.78,15.26,7.29,22.78,2.05,6.17,4.31,11.46,6.81,15.88,2.65,4.71,6.39,7.78,11.22,9.2.39.11.63.48.57.88-.84,5.77-.25,14.32-1.01,20.59ZM242.02,483.11c-3.19-3.3-5.75-7.47-7.66-12.49-3.45-9.02-6.54-18.47-9.3-28.36-.35-1.29-1.47-4.37-3.35-9.24-5.24-13.63-14.14-24.87-26.31-33.13-3.4-2.31-6.28-3.58-10.78-5.73-.11-.05-.19-.14-.22-.27-.05-.22.08-.42.29-.47,20.59-4.88,24.23-27.06,22.22-44.67-1.37-11.96-.96-23.47,1.23-34.52.61-3.1.87-5.59.76-7.48,0-.02.05-.06.05-.06h.02s.02.01.02.01c.49,25.34,1.66,48.36,3.49,69.07,1.6,17.99,7.22,34.72,16.85,50.19,3.48,5.6,7.2,10.29,11.17,14.07,2.69,2.57,5.64,4.2,8.85,4.89.4.08.81.08,1.2,0,6.48-1.42,11.95-7.48,15.76-12.65,12.93-17.58,20.14-37.94,21.67-61.08,1.54-23.31,2.54-42.31,3-56.97.05-1.63.04-2.53-.02-2.72-.28-.76-.39-1.46-.33-2.1h.01c-.01-.07.06-.13.13-.14s.14.05.14.13c3.17,13.81,3.79,27.91,1.86,42.32-.35,2.67-.24,7.19.34,13.55.45,4.78,1.84,9.48,4.19,14.11,3.94,7.75,10.1,12.42,18.46,14.02.07.01.13.06.16.12.05.11,0,.24-.11.29-17.1,7.67-29.44,20.23-37.05,37.67-2.02,4.63-4.53,13.12-7.13,21.97-2.31,7.88-5.19,15.55-8.65,23.02-.96,2.08-2.59,4.23-4.87,6.43-4.55,4.39-11.84,4.6-16.11.2ZM340.9,666.24c7.41,21.38,10.89,43.53,10.42,66.43-.33,15.72-2.75,30.46-4.67,47.12-1.24,10.7-2.67,23.95-3.16,37.21-.29,8.22,2.07,17.6,2.53,25.42.06.99.36,1.94.86,2.79l13.26,22.79c.4.67.84,1.31,1.34,1.9.83,1,3.35,3.23,7.55,6.69,4.98,4.06,10.82,10.07,11.98,16.59.69,3.84-3.37,2.63-3.95,5.58-.12.55-.54.99-1.08,1.13-2.86.72-2.23,4.69-5.83,3.95-.45-.1-.92.04-1.27.34l-1.78,1.53c-1.2.93-2.78,1.01-3.83.2-2.92-2.26-4.1.7-6.23,1.53-6.32,2.46-10.05-1.72-13.41-6.9-.36-.57-.87-1.01-1.47-1.33-5.41-2.83-9.59-5.46-9.73-11.98-.25-11.46-15.7-8.4-14.76-21.54.54-7.58,1.71-12.9.82-20.76-.05-.39-.19-.76-.41-1.1-1.53-2.2-2.3-5.05-2.3-8.53,0-.7.2-5.71.63-15.04.33-7.02-.87-16.26-2.49-23.95-2.98-14.17-6.93-28.97-11.84-44.42-.22-.67-.51-1.33-.87-1.94-3.86-6.67-5.73-10.31-5.82-17.35-.08-5.58.19-10.99.81-16.25,1.63-13.78,2.76-24.72,3.4-32.83.16-1.89-.17-3.65-.25-5.06-.01-.1.02-.19.1-.26.13-.13.35-.13.49,0h0c4.02,4.05,8.66,6.42,13.93,7.11,11.01,1.42,14.94-5.96,20.19-13.97,1.46-2.23,3.43-4.05,5.93-5.47.04-.01.07-.04.11-.05.34-.12.71.06.83.4ZM338.8,649.28c.14.58.24,1.16.29,1.73l.88,11.46c.04.41-.2.78-.58.94-3.79,1.55-6.72,4.34-8.78,8.35-3.41,6.64-8.14,12.26-16.32,11.02-5.84-.89-10.72-3.83-14.63-8.81-6.18-7.9-11-16.49-14.44-25.78-1.36-3.64-2.61-9.4-3.76-17.26,0-.01.01-.04.02-.04.02-.02.08.01.08.01h0c2.57,8.7,8.18,19.81,17.07,21.75,4.98,1.08,9.51-.47,13.59-4.67.3-.33.55-.69.73-1.08,1.96-4.32,3.55-9.49,4.79-15.48.9-4.37,4.83-1.8,7.06-1.14,4.45,1.29,7.96.11,10.55-3.54.07-.1.18-.16.3-.16.19.01.34.17.34.36.04,7.98.98,15.42,2.8,22.35ZM325.37,394.51c1.39,15.31,3.77,30.17,7.14,44.54,3.04,12.94,5.14,22.64,6.32,29.08,6.65,36.32,9.18,73.68,5.53,110.33-1.13,11.24-3.61,23.34-5.95,33.62-1.23,5.39-3.82,18.08-12.65,15.69-1.24-.34-2.76-.87-4.57-1.6-1.36-.54-2.92-.17-3.87.94-1.07,1.23-1.83,2.78-2.3,4.65-2.12,8.49-3.57,19.06-14.51,18.36-10.32-.65-15.54-16.12-17.95-24.03-.93-3.02-1.59-5.65-1.99-7.9-1.31-7.42-2.52-14.18-3.61-20.28-2.42-13.46-6.02-26.84-10.83-40.27-5.36-14.93-10.84-31.91-12.7-47.41-.76-6.25-.17-14.81-1.01-20.58-.06-.4.18-.77.57-.88h0c4.82-1.42,8.55-4.49,11.2-9.2,2.49-4.42,4.76-9.71,6.79-15.87,2.51-7.52,4.94-15.11,7.29-22.78,2.3-7.46,4.92-13.49,7.87-18.13,9.07-14.23,22.07-24.75,38.41-28.84.04-.01.06-.01.1-.01.36-.04.67.22.71.58ZM343.27,265.78c-2.69,12.16-8.51,27.08-14.11,38.59-4.4,8.99-7.05,15.37-7.95,19.16-1.77,7.34-2.22,14.94-1.33,22.82,1.87,16.5,3.46,31.14,4.75,43.91.05.42-.27.8-.7.84-21.53,2.14-29.73-17.88-28.68-35.78.01-.16.43-5.96,1.29-17.44.3-3.99-.14-10.41-1.36-19.29-.88-6.52-1.84-12.85-2.89-19.02-.71-4.18-.98-8.28-.8-12.29.07-1.78.72-3.48,1.83-4.87,3.36-4.19,7.07-8.06,11.12-11.59,3.19-2.78,10.32-9.29,21.4-19.53,4.42-4.07,8.66-8.59,12.7-13.54.42-.52,1.72-1.88,3.89-4.07.04-.05.11-.06.17-.05.1.02.14.12.12.2h0c-2.37,8.67-2.26,17.44.35,26.32.54,1.83.6,3.76.2,5.63ZM378.45,302.79c-8.92-10.85-15.1-20.31-24.64-29.76-5.25-5.19-8.43-11.73-9.55-19.64-1.28-8.88-1.78-23.02,8.42-25.93,6.25-1.78,12.78-1.83,19.58-.16,4.75,1.17,7.84,2.13,9.3,2.87,2.45,1.24,5.01,2.79,7.67,4.65.45.31.83.67,1.17,1.08,10.17,12.49,16.37,27.65,20.69,43.07,1.67,5.99,2.51,12.17,2.48,18.57-.02,11.32-7.55,20.47-19.53,16.36-6.01-2.06-11.2-5.77-15.59-11.12ZM433.95,381.17c-5.13-4.35-9.43-8.48-12.89-12.41-5.28-5.99-9.78-11.98-13.51-17.97-3.2-5.16-7.28-12.83-12.22-23.02-.78-1.63-4.16-6.61-10.13-14.96h-.02s-.04-.12,0-.18c.06-.08.17-.11.25-.06,3.46,2.18,6.51,3.59,9.14,4.24,3.78.94,7.08.92,9.89-.08,14.22-5.01,12.77-23.76,9.85-35.12-.02-.07.01-.16.08-.18.07-.02.16.01.18.08,2.37,4.49,5.22,8.53,8.51,12.11,7.05,7.64,11.76,12.96,14.14,15.99,2.63,3.31,5.48,7.99,8.57,14.02,11.59,22.64,21.24,49.74,30.53,71.16.49,1.14.08,3.01-1.22,5.63-3.25,6.52-9.58,8.72-16.02,5.71-.48-.22-.89-.59-1.16-1.06-5.31-9.48-13.07-14.65-23.99-23.89ZM486.82,479.29c-.02.14-.08.29-.18.41-.3.37-.83.43-1.19.13l-.31-.27c-.49-.46-.8-1.08-.81-1.76l-.41-17.16c0-.19-.02-.37-.08-.55l-2.98-9.26c-.01-.07.01-.13.06-.18.08-.07.2-.06.28.02l4.22,6.75c.17.27.28.55.31.87.19,1.31.77,4.37,1.73,9.18.4,1.99.19,5.93-.64,11.82ZM493.65,485.8s-.05.08-.07.13c-.23.33-.65.4-.96.18-3.23-2.24-3.47-5.04-2.82-9.29.9-5.92.33-12.26-1.73-19.05-.58-1.92-1.58-3.82-3.01-5.73-3.28-4.39-3.29-11.1-9.38-13.11-.17-.06-.35-.08-.53-.06-.69.08-1.18.7-1.11,1.39.67,6.24.23,11.79-1.33,16.65-.49,1.54-2,2.48-3.48,2.16-2.49-.54-3.86-2.26-4.06-5.19-.72-10.13-.35-18.89-4.58-26.05-1.59-2.69-2.43-4.54-2.52-5.57-.23-2.71,0-4.71.71-6,1.36-2.51,1.83-4.53,1.41-6.08h-.01c-.02-.1-.02-.19,0-.29.07-.31.39-.51.7-.43,6.13,1.41,11.07-.27,14.81-5.02,1.05-1.34,1.7-2.78,2.42-4.14.06-.1.14-.17.25-.2.23-.08.49.04.58.28,5.02,15.32,8.82,26.6,15.46,39.02.65,1.22,1.04,2.55,1.13,3.92.3,4.64.83,10.59,1.59,17.85.87,8.37-.29,16.59-3.46,24.65ZM284.34,285.35c-.02.06-.05.12-.07.17l-.06.13c-.34.64-1.07.94-1.76.71-9.43-3.05-19-4.71-28.7-4.99-1.36-.04-2.57-1.1-3.63-3.16-.01-.04-.04-.07-.07-.08,0,0-.02-.01-.05,0h-.04s-.06.05-.07.08c-1.06,2.06-2.26,3.12-3.63,3.16-9.7.27-19.28,1.92-28.71,4.95-.69.23-1.42-.07-1.76-.71l-.06-.13c-.28-.52-.07-1.16.45-1.43.06-.04.12-.06.18-.07,9.79-3.19,19.34-4.88,28.61-5.06.46,0,.88-.2,1.19-.53,2.45-2.59,2.24-7.9,2.24-12.12,0-.47.14-.84.45-1.13.3-.28.69-.42,1.16-.42s.86.14,1.16.42c.3.29.46.66.45,1.13,0,4.22-.22,9.53,2.23,12.12.31.33.73.52,1.19.53,9.28.2,18.82,1.9,28.61,5.1.55.18.87.77.69,1.34ZM250.01,264.72h0,0ZM224.87,286.94v-.04c-.19-.65.19-1.33.84-1.53,6.25-1.9,17.42-4.63,22.72.49.25.25.48.52.67.82.55.84.84,1.27.87,1.27,0,0,.3-.42.86-1.27.19-.3.42-.57.67-.82,5.3-5.12,16.47-2.4,22.72-.49.66.19,1.05.87.87,1.53v.04c-.19.66-.88,1.05-1.54.87-5.48-1.53-13.38-3.37-18.97-1.23-1.7.65-2.83,2.36-2.84,4.29-.01,3.13-.6,4.7-1.76,4.7s-1.75-1.57-1.76-4.7c-.01-1.94-1.14-3.64-2.86-4.29-5.59-2.14-13.49-.3-18.96,1.23-.66.18-1.35-.2-1.53-.87ZM282.27,320.13c.17.42-.02.89-.45,1.07-.08.04-.18.06-.27.06-9.07.54-17.78.04-26.12-1.52-2.36-.45-4.08-1.59-5.17-3.45-.12-.2-.2-.31-.25-.31,0,0-.13.11-.25.31-1.08,1.86-2.81,3-5.17,3.45-8.34,1.57-17.05,2.07-26.12,1.53-.45-.02-.8-.41-.77-.87,0-.1.02-.18.06-.27l.25-.61c.19-.47.66-.77,1.18-.76,7.41.17,14.1-.05,20.06-.66,2.71-.28,5.22-.93,7.52-1.96.39-.18.69-.48.87-.87,1.45-3.24.69-8.71.86-12.3.06-1.34.57-2.01,1.52-2.01s1.46.67,1.52,2.01c.16,3.59-.6,9.06.86,12.3.18.39.48.69.87.87,2.3,1.04,4.81,1.69,7.52,1.96,5.96.6,12.65.82,20.06.65.52-.01.99.29,1.18.76l.25.61ZM249.76,324.97c.05.07.12.11.23.11h-.01c.1-.01.17-.05.22-.12,1.58-2.31,3.81-3.46,6.69-3.45,4.43.01,10.16.42,17.16,1.2.69.08,1.18.71,1.11,1.4v.11c-.1.66-.7,1.14-1.36,1.06-3.39-.45-7.6-.81-12.63-1.08-2.95-.16-5.18-.05-6.66.35-.37.1-.72.28-1.02.52-2.12,1.71-1.89,5.52-1.87,7.92,0,.31-.1.61-.28.87-.31.46-.76.69-1.34.69s-1.02-.23-1.35-.69c-.18-.25-.28-.55-.28-.87.02-2.4.25-6.2-1.87-7.92-.3-.24-.65-.42-1.02-.52-1.48-.4-3.71-.51-6.66-.35-5.02.29-9.24.65-12.63,1.1-.66.08-1.28-.39-1.36-1.05v-.11c-.08-.69.41-1.31,1.1-1.4,7-.8,12.72-1.2,17.16-1.22,2.88-.01,5.11,1.13,6.69,3.45ZM281.09,356.19v.53c.02.41-.28.75-.67.78-11.01.93-19.25,1.2-24.72.82-2.29-.17-4.17-1.4-5.63-3.69,0-.02-.04-.04-.06-.04h-.07s-.05.01-.06.04c-1.46,2.29-3.34,3.52-5.63,3.69-5.47.37-13.71.1-24.72-.86-.4-.04-.7-.37-.69-.78v-.47c.02-.7.6-1.25,1.3-1.24h.06c6.39.41,12.4.72,18.05.95,3.1.12,5.36,0,6.77-.36,1.81-.46,3.08-2.07,3.13-3.94l.24-8.89c0-.27.08-.51.23-.71.42-.64.88-.95,1.36-.95h0c.47,0,.93.31,1.35.95.14.2.22.45.23.71l.23,8.89c.05,1.87,1.33,3.48,3.13,3.94,1.41.37,3.67.49,6.77.37,5.65-.22,11.66-.53,18.05-.93.7-.05,1.3.48,1.35,1.18ZM275.13,361.06v.2c-.11.66-.67,1.17-1.35,1.16-6.65-.06-13.01.54-19.08,1.81-3.61.76-3.13,6.34-3.2,9.42,0,.28-.11.55-.28.77-.33.4-.73.6-1.2.6s-.89-.2-1.22-.6c-.17-.22-.27-.49-.28-.77-.07-3.08.4-8.66-3.22-9.42-6.07-1.26-12.43-1.86-19.08-1.78-.67,0-1.24-.48-1.34-1.14v-.1c-.1-.61.34-1.19.95-1.28h.12c6.93-.23,13.88.46,20.85,2.06,1.16.27,1.99.93,2.51,1.99.28.57.51.84.69.84h-.01c.18-.01.41-.29.69-.86.52-1.06,1.35-1.72,2.51-1.99,6.96-1.6,13.91-2.3,20.85-2.08.63.02,1.12.54,1.1,1.17ZM251.75,380.98v52.58c0,.43-.35.78-.78.78h-2.05c-.43,0-.78-.35-.78-.78v-52.58c0-.43.35-.78.78-.78h2.05c.43,0,.78.35.78.78Z"/>
  </g>
</svg>